<svg width="75" height="54" viewBox="0 0 75 54" fill="none" xmlns="http://www.w3.org/2000/svg">
	<path d="M44.2066 0.719999H30.7666L21.0866 42L10.9266 0.719999H0.926563L14.1266 54H27.7266L37.4866 11.12L47.2466 54H60.8466L74.0466 0.719999H64.0466L53.8866 42L44.2066 0.719999Z"
		  fill="black"/>
	<path d="M44.2066 0.719999L45.1802 0.491696L44.9992 -0.280001H44.2066V0.719999ZM30.7666 0.719999V-0.280001H29.9739L29.793 0.491696L30.7666 0.719999ZM21.0866 42L20.1155 42.239L22.0602 42.2283L21.0866 42ZM10.9266 0.719999L11.8976 0.481008L11.7103 -0.280001H10.9266V0.719999ZM0.926563 0.719999V-0.280001H-0.351418L-0.0440922 0.960477L0.926563 0.719999ZM14.1266 54L13.1559 54.2405L13.3441 55H14.1266V54ZM27.7266 54V55H28.5245L28.7016 54.2219L27.7266 54ZM37.4866 11.12L38.4616 10.8981H36.5115L37.4866 11.12ZM47.2466 54L46.2715 54.2219L46.4486 55H47.2466V54ZM60.8466 54V55H61.6291L61.8172 54.2405L60.8466 54ZM74.0466 0.719999L75.0172 0.960477L75.3245 -0.280001H74.0466V0.719999ZM64.0466 0.719999V-0.280001H63.2628L63.0755 0.481008L64.0466 0.719999ZM53.8866 42L52.913 42.2283L54.8576 42.239L53.8866 42ZM44.2066 -0.280001H30.7666V1.72H44.2066V-0.280001ZM29.793 0.491696L20.113 41.7717L22.0602 42.2283L31.7402 0.948302L29.793 0.491696ZM22.0576 41.761L11.8976 0.481008L9.95554 0.958991L20.1155 42.239L22.0576 41.761ZM10.9266 -0.280001H0.926563V1.72H10.9266V-0.280001ZM-0.0440922 0.960477L13.1559 54.2405L15.0972 53.7595L1.89722 0.479522L-0.0440922 0.960477ZM14.1266 55H27.7266V53H14.1266V55ZM28.7016 54.2219L38.4616 11.3419L36.5115 10.8981L26.7515 53.7781L28.7016 54.2219ZM36.5115 11.3419L46.2715 54.2219L48.2216 53.7781L38.4616 10.8981L36.5115 11.3419ZM47.2466 55H60.8466V53H47.2466V55ZM61.8172 54.2405L75.0172 0.960477L73.0759 0.479522L59.8759 53.7595L61.8172 54.2405ZM74.0466 -0.280001H64.0466V1.72H74.0466V-0.280001ZM63.0755 0.481008L52.9155 41.761L54.8576 42.239L65.0176 0.958991L63.0755 0.481008ZM54.8602 41.7717L45.1802 0.491696L43.233 0.948302L52.913 42.2283L54.8602 41.7717Z"
		  fill="url(#paint0_linear_44_1673)"/>
	<defs>
		<linearGradient id="paint0_linear_44_1673" x1="-29" y1="-14" x2="107.677" y2="-7.12739" gradientUnits="userSpaceOnUse">
			<stop stop-color="#FFCB52"/>
			<stop offset="1" stop-color="#FF7B02"/>
		</linearGradient>
	</defs>
</svg>
