<svg width="20" height="20" viewBox="0 0 20 20" fill="none" xmlns="http://www.w3.org/2000/svg">
<g clip-path="url(#clip0_1384_1483)">
<path d="M15 4.16664H15.8333V4.99998C15.8333 5.22099 15.9211 5.43295 16.0774 5.58923C16.2337 5.74551 16.4456 5.83331 16.6667 5.83331C16.8877 5.83331 17.0996 5.74551 17.2559 5.58923C17.4122 5.43295 17.5 5.22099 17.5 4.99998V4.16664H18.3333C18.5543 4.16664 18.7663 4.07885 18.9226 3.92257C19.0789 3.76629 19.1667 3.55433 19.1667 3.33331C19.1667 3.1123 19.0789 2.90034 18.9226 2.74406C18.7663 2.58778 18.5543 2.49998 18.3333 2.49998H17.5V1.66664C17.5 1.44563 17.4122 1.23367 17.2559 1.07739C17.0996 0.921109 16.8877 0.833311 16.6667 0.833311C16.4456 0.833311 16.2337 0.921109 16.0774 1.07739C15.9211 1.23367 15.8333 1.44563 15.8333 1.66664V2.49998H15C14.779 2.49998 14.567 2.58778 14.4107 2.74406C14.2545 2.90034 14.1667 3.1123 14.1667 3.33331C14.1667 3.55433 14.2545 3.76629 14.4107 3.92257C14.567 4.07885 14.779 4.16664 15 4.16664ZM5.83332 5.83331V14.1666C5.83332 14.3877 5.92112 14.5996 6.0774 14.7559C6.23368 14.9122 6.44564 15 6.66665 15C6.88767 15 7.09963 14.9122 7.25591 14.7559C7.41219 14.5996 7.49999 14.3877 7.49999 14.1666V5.83331C7.49999 5.6123 7.41219 5.40034 7.25591 5.24406C7.09963 5.08778 6.88767 4.99998 6.66665 4.99998C6.44564 4.99998 6.23368 5.08778 6.0774 5.24406C5.92112 5.40034 5.83332 5.6123 5.83332 5.83331ZM18 7.49998C17.8927 7.52184 17.7908 7.56463 17.7001 7.62589C17.6094 7.68714 17.5316 7.76567 17.4713 7.85699C17.4109 7.9483 17.3691 8.05062 17.3483 8.15808C17.3275 8.26555 17.3281 8.37606 17.35 8.48331C17.6754 10.0635 17.4825 11.7065 16.8001 13.1683C16.1177 14.6302 14.982 15.8331 13.5618 16.5984C12.1415 17.3637 10.5123 17.6506 8.91607 17.4165C7.31982 17.1825 5.84158 16.44 4.70079 15.2992C3.56 14.1584 2.81747 12.6801 2.58343 11.0839C2.34939 9.48763 2.6363 7.85846 3.40159 6.4382C4.16688 5.01794 5.36975 3.88231 6.83163 3.19988C8.29351 2.51745 9.93648 2.32461 11.5167 2.64998C11.7377 2.69418 11.9672 2.64878 12.1547 2.52375C12.3423 2.39873 12.4725 2.20433 12.5167 1.98331C12.5609 1.7623 12.5155 1.53278 12.3904 1.34524C12.2654 1.1577 12.071 1.02751 11.85 0.983311C11.2401 0.869687 10.6202 0.81942 9.99999 0.833311C8.18699 0.833311 6.41471 1.37093 4.90726 2.37817C3.39981 3.38542 2.22489 4.81706 1.53109 6.49205C0.837285 8.16704 0.655754 10.0101 1.00945 11.7883C1.36315 13.5665 2.23619 15.1998 3.51817 16.4818C4.80015 17.7638 6.4335 18.6368 8.21166 18.9905C9.98982 19.3442 11.8329 19.1627 13.5079 18.4689C15.1829 17.7751 16.6145 16.6002 17.6218 15.0927C18.629 13.5853 19.1667 11.813 19.1667 9.99998C19.1684 9.3842 19.107 8.76987 18.9833 8.16664C18.9634 8.05789 18.922 7.9542 18.8615 7.8616C18.8011 7.76901 18.7228 7.68937 18.6313 7.62732C18.5398 7.56527 18.4368 7.52206 18.3284 7.50019C18.2201 7.47833 18.1084 7.47826 18 7.49998ZM9.16665 7.49998V8.33331C9.17033 8.95002 9.40183 9.54361 9.81665 9.99998C9.40183 10.4563 9.17033 11.0499 9.16665 11.6666V12.5C9.16665 13.163 9.43004 13.7989 9.89889 14.2677C10.3677 14.7366 11.0036 15 11.6667 15H12.5C13.163 15 13.7989 14.7366 14.2678 14.2677C14.7366 13.7989 15 13.163 15 12.5V11.6666C14.9963 11.0499 14.7648 10.4563 14.35 9.99998C14.7648 9.54361 14.9963 8.95002 15 8.33331V7.49998C15 6.83694 14.7366 6.20105 14.2678 5.73221C13.7989 5.26337 13.163 4.99998 12.5 4.99998H11.6667C11.0036 4.99998 10.3677 5.26337 9.89889 5.73221C9.43004 6.20105 9.16665 6.83694 9.16665 7.49998ZM13.3333 12.5C13.3333 12.721 13.2455 12.933 13.0892 13.0892C12.933 13.2455 12.721 13.3333 12.5 13.3333H11.6667C11.4456 13.3333 11.2337 13.2455 11.0774 13.0892C10.9211 12.933 10.8333 12.721 10.8333 12.5V11.6666C10.8333 11.4456 10.9211 11.2337 11.0774 11.0774C11.2337 10.9211 11.4456 10.8333 11.6667 10.8333H12.5C12.721 10.8333 12.933 10.9211 13.0892 11.0774C13.2455 11.2337 13.3333 11.4456 13.3333 11.6666V12.5ZM13.3333 7.49998V8.33331C13.3333 8.55432 13.2455 8.76629 13.0892 8.92257C12.933 9.07885 12.721 9.16664 12.5 9.16664H11.6667C11.4456 9.16664 11.2337 9.07885 11.0774 8.92257C10.9211 8.76629 10.8333 8.55432 10.8333 8.33331V7.49998C10.8333 7.27896 10.9211 7.067 11.0774 6.91072C11.2337 6.75444 11.4456 6.66664 11.6667 6.66664H12.5C12.721 6.66664 12.933 6.75444 13.0892 6.91072C13.2455 7.067 13.3333 7.27896 13.3333 7.49998Z" fill="white"/>
</g>
<defs>
<clipPath id="clip0_1384_1483">
<rect width="20" height="20" fill="white"/>
</clipPath>
</defs>
</svg>
