<svg width="24" height="22" viewBox="0 0 24 22" fill="none" xmlns="http://www.w3.org/2000/svg">
<g clip-path="url(#clip0_431_1480)">
<path d="M17.856 2.63802H19.6611C20.8551 2.63802 21.9401 3.15054 22.726 3.97566C23.5119 4.80077 24 5.94032 24 7.19357V17.4443C24 18.6979 23.512 19.8371 22.7262 20.6622C21.9403 21.4875 20.8551 22 19.6611 22H4.3389C3.14495 22 2.05995 21.4875 1.2741 20.6622C0.488134 19.8371 0 18.6979 0 17.4443V7.19357C0 5.93998 0.488134 4.80066 1.2741 3.97554C2.05995 3.15031 3.14495 2.63802 4.3389 2.63802H6.14416C6.31475 2.05767 6.64806 1.5471 7.05802 1.13437C7.75507 0.432159 8.71196 0 9.45281 0H14.5471C15.288 0 16.245 0.432159 16.9419 1.13437C17.3518 1.5471 17.6851 2.05767 17.8559 2.63802H17.856ZM12 6.7667C13.4599 6.7667 14.7823 7.38833 15.7392 8.39302C16.6962 9.39783 17.2882 10.7862 17.2882 12.3191C17.2882 13.852 16.6962 15.2403 15.7392 16.2451C14.7821 17.2498 13.4601 17.8714 12 17.8714C10.5399 17.8714 9.21794 17.2498 8.26083 16.2451C7.30394 15.2402 6.7119 13.8521 6.7119 12.3191C6.7119 10.786 7.30394 9.39794 8.26083 8.39302C9.21772 7.38833 10.5401 6.7667 12 6.7667ZM14.5889 9.60086C13.9266 8.90542 13.0112 8.47534 12 8.47534C10.9889 8.47534 10.0734 8.90542 9.41109 9.60086C8.74896 10.2963 8.33912 11.2575 8.33912 12.3191C8.33912 13.3806 8.74896 14.342 9.41109 15.0373C10.0734 15.7326 10.9889 16.1629 12 16.1629C13.011 16.1629 13.9266 15.7326 14.5889 15.0373C15.2513 14.342 15.6609 13.3807 15.6609 12.3191C15.6609 11.2574 15.2513 10.2963 14.5889 9.60086ZM19.6611 4.34654H17.166C16.7168 4.34654 16.3525 3.96405 16.3525 3.49234C16.3525 3.07064 16.127 2.67435 15.8169 2.36222C15.4154 1.95765 14.9098 1.70863 14.5472 1.70863H9.45292C9.09037 1.70863 8.58472 1.95765 8.1832 2.36222C7.87311 2.67447 7.64765 3.07064 7.64765 3.49234C7.64765 3.96405 7.28336 4.34654 6.8341 4.34654H4.33901C3.59399 4.34654 2.9161 4.66718 2.42446 5.18338C1.93283 5.6997 1.62733 6.41145 1.62733 7.19369V17.4445C1.62733 18.2265 1.93283 18.9384 2.42446 19.4546C2.91621 19.9708 3.5941 20.2916 4.33901 20.2916H19.6612C20.4063 20.2916 21.0844 19.9708 21.5759 19.4546C22.0676 18.9383 22.3729 18.2267 22.3729 17.4445V7.19369C22.3729 6.41168 22.0675 5.6997 21.5758 5.18361C21.084 4.6673 20.4061 4.34654 19.6612 4.34654H19.6611Z" fill="#B0B0B0"/>
</g>
<defs>
<clipPath id="clip0_431_1480">
<rect width="24" height="22" fill="white"/>
</clipPath>
</defs>
</svg>
