<svg width="24" height="24" viewBox="0 0 24 24" fill="none" xmlns="http://www.w3.org/2000/svg">
<g clip-path="url(#clip0_794_712)">
<path d="M12.0164 0C10.4428 0 8.88461 0.310376 7.43082 0.913405C5.97703 1.51643 4.65608 2.40031 3.54339 3.51456C1.29622 5.7649 0.0337746 8.81701 0.0337746 11.9995C0.0232992 14.7703 0.981348 17.4575 2.74184 19.5951L0.345322 21.995C0.179054 22.1638 0.0664224 22.378 0.0216386 22.6108C-0.0231453 22.8436 0.00192548 23.0844 0.0936874 23.303C0.193212 23.5189 0.354553 23.7003 0.55723 23.8242C0.759906 23.9481 0.994779 24.0089 1.23203 23.9989H12.0164C15.1943 23.9989 18.2422 22.7347 20.4893 20.4844C22.7365 18.234 23.9989 15.1819 23.9989 11.9995C23.9989 8.81701 22.7365 5.7649 20.4893 3.51456C18.2422 1.26423 15.1943 0 12.0164 0ZM12.0164 21.599H4.11983L5.23422 20.4831C5.34744 20.372 5.43751 20.2394 5.49922 20.0932C5.56092 19.9469 5.59303 19.7899 5.59369 19.6311C5.58919 19.3146 5.45998 19.0127 5.23422 18.7912C3.6652 17.2217 2.68813 15.156 2.46946 12.946C2.2508 10.736 2.80408 8.51843 4.03503 6.67113C5.26598 4.82383 7.09845 3.46108 9.22024 2.81504C11.342 2.16901 13.6219 2.27966 15.6713 3.12816C17.7208 3.97665 19.413 5.51049 20.4598 7.46834C21.5066 9.42619 21.8431 11.6869 21.4121 13.8654C20.981 16.0439 19.809 18.0053 18.0958 19.4154C16.3825 20.8256 14.234 21.5973 12.0164 21.599Z" fill="white"/>
<circle cx="6.5" cy="11.5" r="1.5" fill="white"/>
<circle cx="11.5" cy="11.5" r="1.5" fill="white"/>
<circle cx="16.5" cy="11.5" r="1.5" fill="white"/>
</g>
<defs>
<clipPath id="clip0_794_712">
<rect width="24" height="24" fill="white"/>
</clipPath>
</defs>
</svg>
