<svg width="26" height="26" viewBox="0 0 26 26" fill="none" xmlns="http://www.w3.org/2000/svg">
<g clip-path="url(#clip0_431_1899)">
<path d="M13.0177 0C11.313 0 9.625 0.33624 8.05006 0.989522C6.47511 1.6428 5.04408 2.60034 3.83867 3.80744C1.40424 6.24531 0.0365891 9.55176 0.0365891 12.9994C0.0252408 16.0012 1.06313 18.9123 2.97032 21.2281L0.374099 23.8279C0.193975 24.0107 0.0719576 24.2429 0.0234418 24.4951C-0.0250741 24.7472 0.00208594 25.0081 0.101495 25.2449C0.209313 25.4788 0.384099 25.6753 0.603666 25.8096C0.823232 25.9438 1.07768 26.0097 1.3347 25.9988H13.0177C16.4605 25.9988 19.7623 24.6293 22.1968 22.1914C24.6312 19.7535 25.9989 16.4471 25.9989 12.9994C25.9989 9.55176 24.6312 6.24531 22.1968 3.80744C19.7623 1.36958 16.4605 0 13.0177 0ZM13.0177 23.399H4.46315L5.6704 22.19C5.79306 22.0696 5.89064 21.9261 5.95748 21.7676C6.02433 21.6092 6.05912 21.4391 6.05983 21.2671C6.05496 20.9242 5.91498 20.5971 5.6704 20.3571C3.97063 18.6568 2.91214 16.419 2.67525 14.0248C2.43837 11.6306 3.03775 9.2283 4.37128 7.22706C5.70482 5.22582 7.68999 3.7495 9.98859 3.04963C12.2872 2.34976 14.757 2.46964 16.9772 3.38884C19.1975 4.30804 21.0308 5.96969 22.1648 8.0907C23.2988 10.2117 23.6634 12.6608 23.1964 15.0208C22.7294 17.3808 21.4597 19.5057 19.6037 21.0334C17.7477 22.5611 15.4202 23.3971 13.0177 23.399Z" fill="url(#paint0_linear_431_1899)"/>
<path d="M13.0177 23.399H4.46315L5.6704 22.19C5.79306 22.0696 5.89064 21.9261 5.95748 21.7676C6.02433 21.6092 6.05912 21.4391 6.05983 21.2671C6.05496 20.9242 5.91498 20.5971 5.6704 20.3571C3.97063 18.6568 2.91214 16.419 2.67525 14.0248C2.43837 11.6306 3.03775 9.2283 4.37128 7.22706C5.70482 5.22582 7.68999 3.7495 9.98859 3.04963C12.2872 2.34976 14.757 2.46964 16.9772 3.38884C19.1975 4.30804 21.0308 5.96969 22.1648 8.0907C23.2988 10.2117 23.6634 12.6608 23.1964 15.0208C22.7294 17.3808 21.4597 19.5057 19.6037 21.0334C17.7477 22.5611 15.4202 23.3971 13.0177 23.399Z" fill="url(#paint1_linear_431_1899)"/>
<path d="M13.0177 0C11.313 0 9.625 0.33624 8.05006 0.989522C6.47511 1.6428 5.04408 2.60034 3.83867 3.80744C1.40424 6.24531 0.0365891 9.55176 0.0365891 12.9994C0.0252408 16.0012 1.06313 18.9123 2.97032 21.2281L0.374099 23.8279C0.193975 24.0107 0.0719576 24.2429 0.0234418 24.4951C-0.0250741 24.7472 0.00208594 25.0081 0.101495 25.2449C0.209313 25.4788 0.384099 25.6753 0.603666 25.8096C0.823232 25.9438 1.07768 26.0097 1.3347 25.9988H13.0177C16.4605 25.9988 19.7623 24.6293 22.1968 22.1914C24.6312 19.7535 25.9989 16.4471 25.9989 12.9994C25.9989 9.55176 24.6312 6.24531 22.1968 3.80744C19.7623 1.36958 16.4605 0 13.0177 0ZM13.0177 23.399H4.46315L5.6704 22.19C5.79306 22.0696 5.89064 21.9261 5.95748 21.7676C6.02433 21.6092 6.05912 21.4391 6.05983 21.2671C6.05496 20.9242 5.91498 20.5971 5.6704 20.3571C3.97063 18.6568 2.91214 16.419 2.67525 14.0248C2.43837 11.6306 3.03775 9.2283 4.37128 7.22706C5.70482 5.22582 7.68999 3.7495 9.98859 3.04963C12.2872 2.34976 14.757 2.46964 16.9772 3.38884C19.1975 4.30804 21.0308 5.96969 22.1648 8.0907C23.2988 10.2117 23.6634 12.6608 23.1964 15.0208C22.7294 17.3808 21.4597 19.5057 19.6037 21.0334C17.7477 22.5611 15.4202 23.3971 13.0177 23.399Z" fill="url(#paint2_linear_431_1899)"/>
<path d="M13.0177 23.399H4.46315L5.6704 22.19C5.79306 22.0696 5.89064 21.9261 5.95748 21.7676C6.02433 21.6092 6.05912 21.4391 6.05983 21.2671C6.05496 20.9242 5.91498 20.5971 5.6704 20.3571C3.97063 18.6568 2.91214 16.419 2.67525 14.0248C2.43837 11.6306 3.03775 9.2283 4.37128 7.22706C5.70482 5.22582 7.68999 3.7495 9.98859 3.04963C12.2872 2.34976 14.757 2.46964 16.9772 3.38884C19.1975 4.30804 21.0308 5.96969 22.1648 8.0907C23.2988 10.2117 23.6634 12.6608 23.1964 15.0208C22.7294 17.3808 21.4597 19.5057 19.6037 21.0334C17.7477 22.5611 15.4202 23.3971 13.0177 23.399Z" fill="url(#paint3_linear_431_1899)"/>
<circle cx="7.04199" cy="12.4583" r="1.625" fill="black"/>
<circle cx="12.458" cy="12.4583" r="1.625" fill="black"/>
<circle cx="17.875" cy="12.4583" r="1.625" fill="black"/>
</g>
<defs>
<linearGradient id="paint0_linear_431_1899" x1="0" y1="0" x2="26.7607" y2="0.809362" gradientUnits="userSpaceOnUse">
<stop stop-color="#FFCB52"/>
<stop offset="1" stop-color="#FF7B02"/>
</linearGradient>
<linearGradient id="paint1_linear_431_1899" x1="0" y1="0" x2="26.7607" y2="0.809362" gradientUnits="userSpaceOnUse">
<stop stop-color="#FFCB52"/>
<stop offset="1" stop-color="#FF7B02"/>
</linearGradient>
<linearGradient id="paint2_linear_431_1899" x1="0" y1="0" x2="26.7607" y2="0.809362" gradientUnits="userSpaceOnUse">
<stop stop-color="#FFCB52"/>
<stop offset="1" stop-color="#FF7B02"/>
</linearGradient>
<linearGradient id="paint3_linear_431_1899" x1="0" y1="0" x2="26.7607" y2="0.809362" gradientUnits="userSpaceOnUse">
<stop stop-color="#FFCB52"/>
<stop offset="1" stop-color="#FF7B02"/>
</linearGradient>
<clipPath id="clip0_431_1899">
<rect width="26" height="26" fill="white"/>
</clipPath>
</defs>
</svg>
