<svg width="26" height="26" viewBox="0 0 26 26" fill="none" xmlns="http://www.w3.org/2000/svg">
<path d="M21.0133 9.27186L20.6352 20.9718C20.603 21.9738 20.1902 22.9236 19.4843 23.6195C18.7785 24.3154 17.8352 24.7027 16.8547 24.6991H9.67171C8.69182 24.7027 7.74908 24.316 7.04334 23.6209C6.3376 22.9258 5.92435 21.977 5.89119 20.9757L5.51313 9.27186C5.50486 9.01557 5.5965 8.7664 5.7679 8.57919C5.9393 8.39198 6.17641 8.28206 6.42707 8.2736C6.67774 8.26514 6.92142 8.35884 7.10452 8.53409C7.28761 8.70934 7.39512 8.95178 7.40339 9.20808L7.78145 20.9109C7.80027 21.4105 8.0077 21.8832 8.36018 22.2297C8.71265 22.5762 9.18273 22.7696 9.67171 22.7692H16.8547C17.3443 22.7696 17.8149 22.5757 18.1675 22.2283C18.5201 21.881 18.7271 21.4073 18.745 20.907L19.123 9.20808C19.1313 8.95178 19.2388 8.70934 19.4219 8.53409C19.605 8.35884 19.8487 8.26514 20.0993 8.2736C20.35 8.28206 20.5871 8.39198 20.7585 8.57919C20.9299 8.7664 21.0215 9.01557 21.0133 9.27186ZM22.2637 5.37833C22.2637 5.63463 22.1641 5.88043 21.9868 6.06166C21.8096 6.2429 21.5692 6.34471 21.3185 6.34471H5.2088C4.95814 6.34471 4.71774 6.2429 4.54049 6.06166C4.36325 5.88043 4.26367 5.63463 4.26367 5.37833C4.26367 5.12203 4.36325 4.87623 4.54049 4.695C4.71774 4.51377 4.95814 4.41196 5.2088 4.41196H8.1387C8.43817 4.41278 8.72722 4.29966 8.94961 4.09459C9.172 3.88953 9.31182 3.60721 9.34185 3.30256C9.4116 2.58791 9.73906 1.9254 10.2604 1.44412C10.7818 0.962846 11.4597 0.697269 12.1621 0.699137H14.3643C15.0667 0.697269 15.7446 0.962846 16.266 1.44412C16.7873 1.9254 17.1148 2.58791 17.1845 3.30256C17.2146 3.60721 17.3544 3.88953 17.5768 4.09459C17.7992 4.29966 18.0882 4.41278 18.3877 4.41196H21.3176C21.5683 4.41196 21.8087 4.51377 21.9859 4.695C22.1631 4.87623 22.2627 5.12203 22.2627 5.37833H22.2637ZM10.9826 4.41196H15.5457C15.4215 4.12179 15.3403 3.81433 15.3047 3.4997C15.2813 3.26149 15.1722 3.04065 14.9986 2.87997C14.8251 2.71929 14.5994 2.63019 14.3652 2.62996H12.1631C11.9289 2.63019 11.7032 2.71929 11.5296 2.87997C11.3561 3.04065 11.247 3.26149 11.2236 3.4997C11.1877 3.81438 11.1071 4.12185 10.9826 4.41196ZM11.9343 19.0535V10.8248C11.9343 10.5685 11.8348 10.3227 11.6575 10.1415C11.4803 9.96027 11.2399 9.85846 10.9892 9.85846C10.7386 9.85846 10.4982 9.96027 10.3209 10.1415C10.1437 10.3227 10.0441 10.5685 10.0441 10.8248V19.0574C10.0441 19.3137 10.1437 19.5595 10.3209 19.7407C10.4982 19.922 10.7386 20.0238 10.9892 20.0238C11.2399 20.0238 11.4803 19.922 11.6575 19.7407C11.8348 19.5595 11.9343 19.3137 11.9343 19.0574V19.0535ZM16.4842 19.0535V10.8248C16.4842 10.5685 16.3846 10.3227 16.2074 10.1415C16.0301 9.96027 15.7897 9.85846 15.5391 9.85846C15.2884 9.85846 15.048 9.96027 14.8708 10.1415C14.6935 10.3227 14.5939 10.5685 14.5939 10.8248V19.0574C14.5939 19.3137 14.6935 19.5595 14.8708 19.7407C15.048 19.922 15.2884 20.0238 15.5391 20.0238C15.7897 20.0238 16.0301 19.922 16.2074 19.7407C16.3846 19.5595 16.4842 19.3137 16.4842 19.0574V19.0535Z" fill="white"/>
</svg>
