<svg width="24" height="26" viewBox="0 0 24 26" fill="none" xmlns="http://www.w3.org/2000/svg">
<path d="M9.88065 16.6843C8.94509 15.7231 7.8012 15.005 6.54336 14.5892L5.46721 16.9954C6.3504 17.3449 7.14221 17.9021 7.77955 18.6227C8.41689 19.3433 8.88215 20.2074 9.13826 21.146L11.9241 20.1173C11.5166 18.8222 10.8162 17.6455 9.88065 16.6843Z" fill="url(#paint0_linear_431_1823)"/>
<path d="M6.50309 19.8258C6.02004 19.2811 5.41373 18.868 4.73821 18.6235L2.52516 23.5791L7.50669 21.7454C7.33092 21.03 6.98614 20.3705 6.50309 19.8258Z" fill="url(#paint1_linear_431_1823)"/>
<path fill-rule="evenodd" clip-rule="evenodd" d="M13.3127 21.5038L1.16262 25.9765L1.15394 25.9496C0.993279 26.0077 0.819599 26.0157 0.654527 25.9728C0.489454 25.9298 0.34028 25.8378 0.225574 25.7081C0.110869 25.5785 0.035699 25.4169 0.00942289 25.2435C-0.0168532 25.0701 0.00692485 24.8926 0.0777971 24.7331L5.28496 13.1043C5.37008 12.9135 5.51757 12.7597 5.70161 12.6698C5.88566 12.5798 6.09454 12.5595 6.29168 12.6123C8.70377 13.2319 10.8068 14.7524 12.1931 16.8792C12.3256 16.7841 12.4787 16.6743 12.6492 16.552C14.5007 15.2239 18.4076 12.4214 20.299 11.029C23.0414 9.00735 21.6702 6.20749 20.9499 5.09828C20.7455 4.80732 20.4866 4.5616 20.1885 4.37568C19.8903 4.18976 19.559 4.06742 19.2141 4.01591C18.8119 3.97557 18.406 4.02676 18.0251 4.16588C17.6442 4.30499 17.2976 4.52862 17.0098 4.82098C16.7893 5.00746 16.6101 5.24048 16.4844 5.50434C16.3586 5.7682 16.2892 6.05677 16.2808 6.35061C16.3106 7.10044 16.6 7.81445 17.0965 8.36329C17.2751 8.43957 17.47 8.46649 17.6617 8.44139C17.8535 8.41629 18.0356 8.34003 18.1901 8.22017C18.4244 8.04126 18.4504 7.88919 18.3116 7.60295C18.2174 7.3917 18.2068 7.15097 18.2818 6.93176C18.3569 6.71256 18.5119 6.53209 18.7138 6.42859C18.9158 6.3251 19.1489 6.3067 19.3638 6.3773C19.5787 6.4479 19.7584 6.60195 19.865 6.80682C20.1273 7.28133 20.205 7.84074 20.0826 8.37206C19.9602 8.90337 19.6467 9.367 19.2055 9.6693C18.7277 10.0479 18.1419 10.2532 17.5392 10.2532C16.9365 10.2532 16.3507 10.0479 15.8729 9.6693C15.0154 8.75562 14.5388 7.53236 14.545 6.26116C14.5666 5.72213 14.6975 5.19373 14.9291 4.70998C15.1608 4.22622 15.4882 3.79782 15.8902 3.45236C16.3598 2.98527 16.9241 2.63145 17.5424 2.41643C18.1608 2.2014 18.8177 2.13055 19.4658 2.20897C20.0613 2.2893 20.634 2.49614 21.1479 2.81641C21.6618 3.13668 22.1056 3.5634 22.4513 4.06958C24.0568 6.55635 24.6209 10.0629 21.3664 12.4513C20.6981 12.9335 19.7959 13.5855 18.8252 14.2869C16.6447 15.8626 14.1186 17.688 13.1217 18.3998C13.4276 19.0489 13.6829 19.7219 13.8855 20.4125C13.9454 20.6355 13.9193 20.8737 13.8125 21.0772C13.7057 21.2807 13.5265 21.4336 13.3127 21.5038ZM9.88065 16.6843C8.94509 15.7231 7.8012 15.005 6.54336 14.5892L5.46721 16.9954L4.73821 18.6235L2.52516 23.5791L7.50669 21.7454L9.13826 21.146L11.9241 20.1173C11.5166 18.8222 10.8162 17.6455 9.88065 16.6843Z" fill="url(#paint2_linear_431_1823)"/>
<path d="M10.0313 9.55351C9.87479 9.6008 9.71529 9.63667 9.55393 9.66085C9.16696 9.67311 8.79088 9.79584 8.46757 10.0154C8.14426 10.2349 7.88642 10.5426 7.72274 10.9042C7.67028 11.04 7.65089 11.187 7.66627 11.3322C7.68165 11.4775 7.73133 11.6167 7.81096 11.7376C7.8906 11.8585 7.99776 11.9575 8.12308 12.0259C8.2484 12.0942 8.38807 12.1299 8.52985 12.1297C8.7007 12.1264 8.86678 12.0711 9.00727 11.9708C9.14776 11.8706 9.25641 11.7298 9.31961 11.5662C9.4899 11.4987 9.66777 11.4536 9.849 11.432C10.236 11.4198 10.6121 11.297 10.9354 11.0775C11.2587 10.858 11.5165 10.5503 11.6802 10.1886C11.7825 9.80515 11.7799 9.39997 11.6727 9.01792C11.5655 8.63587 11.3578 8.29183 11.0727 8.02388C10.9682 7.89673 10.8725 7.76223 10.7863 7.62134C10.9399 7.57423 11.0965 7.53836 11.2549 7.514C11.6421 7.50276 12.0186 7.38044 12.3421 7.16079C12.6656 6.94115 12.9233 6.63287 13.0861 6.27061C13.1295 6.16032 13.1511 6.04221 13.1497 5.92321C13.1482 5.8042 13.1237 5.68669 13.0777 5.57756C13.0316 5.46843 12.9649 5.36987 12.8814 5.28766C12.7979 5.20545 12.6993 5.14124 12.5914 5.09878C12.3795 5.01953 12.1459 5.02843 11.9401 5.1236C11.7344 5.21877 11.5727 5.39274 11.4893 5.60866C11.319 5.67624 11.1411 5.72133 10.9599 5.74284C10.5727 5.75408 10.1962 5.8764 9.87267 6.09604C9.54919 6.31569 9.29154 6.62396 9.12868 6.98623C9.02635 7.3697 9.02894 7.77488 9.13616 8.15693C9.24338 8.53898 9.45104 8.88302 9.73618 9.15098C9.8436 9.27783 9.94221 9.41234 10.0313 9.55351ZM23.9431 17.8457C23.8613 17.6303 23.7017 17.4559 23.4978 17.3592C23.2939 17.2624 23.0615 17.2509 22.8496 17.3269C22.6865 17.2398 22.5348 17.1316 22.3983 17.0049C22.1372 16.7101 21.8015 16.4962 21.429 16.3872C21.0565 16.2781 20.6618 16.2783 20.2894 16.3877C19.9401 16.5576 19.6434 16.8239 19.432 17.1571C19.2206 17.4902 19.1028 17.8772 19.0917 18.2751C19.0685 18.4415 19.0337 18.6059 18.9876 18.7671C18.8508 18.6784 18.7203 18.5797 18.597 18.4719C18.3354 18.178 17.9997 17.9647 17.6273 17.8557C17.255 17.7467 16.8606 17.7464 16.4881 17.8547C16.3792 17.8937 16.279 17.9547 16.1932 18.0341C16.1074 18.1135 16.0379 18.2098 15.9886 18.3172C15.9393 18.4246 15.9113 18.5411 15.9062 18.6598C15.901 18.7785 15.9189 18.8971 15.9587 19.0086C16.0389 19.2257 16.1978 19.4022 16.4019 19.5006C16.6059 19.5991 16.8392 19.612 17.0522 19.5364C17.2155 19.6232 17.3672 19.7314 17.5035 19.8584C17.9162 20.2745 18.4559 20.5305 19.031 20.583C19.23 20.5809 19.4271 20.5415 19.6124 20.4667C19.9649 20.2993 20.2652 20.034 20.4798 19.7007C20.6944 19.3674 20.8148 18.9791 20.8274 18.5793C20.8507 18.4129 20.8855 18.2485 20.9316 18.0873C21.0683 18.1762 21.1988 18.2748 21.3221 18.3825C21.5832 18.6772 21.9189 18.8912 22.2914 19.0002C22.6639 19.1092 23.0586 19.109 23.431 18.9997C23.5384 18.9589 23.6368 18.8966 23.7207 18.8164C23.8046 18.7362 23.8723 18.6397 23.9199 18.5325C23.9675 18.4252 23.994 18.3094 23.998 18.1915C24.002 18.0736 23.9833 17.9561 23.9431 17.8457ZM6.54245 4.90199C6.68687 4.97524 6.82607 5.05894 6.95902 5.15245C6.83595 5.26318 6.70545 5.36481 6.56849 5.45659C6.21729 5.62335 5.91782 5.88718 5.70333 6.2188C5.48885 6.55041 5.36775 6.93682 5.35348 7.33509C5.35348 7.57234 5.44492 7.79986 5.60767 7.96762C5.77043 8.13537 5.99117 8.22962 6.22134 8.22962C6.44237 8.21592 6.64996 8.11567 6.80162 7.94937C6.95328 7.78308 7.03753 7.56332 7.03713 7.33509C7.16709 7.20314 7.31292 7.08891 7.47106 6.99517C7.82226 6.82842 8.12173 6.56458 8.33622 6.23297C8.5507 5.90136 8.6718 5.51495 8.68607 5.11667C8.64187 4.71514 8.48905 4.33449 8.24507 4.01816C8.00108 3.70183 7.67574 3.46255 7.30617 3.32763C7.17933 3.24941 7.05757 3.16276 6.94167 3.06822C7.05944 2.96123 7.18412 2.86261 7.31485 2.77302C7.66665 2.60711 7.96666 2.34348 8.18126 2.01168C8.39586 1.67989 8.51657 1.29305 8.52985 0.894524C8.52985 0.657281 8.43842 0.429756 8.27566 0.262C8.11291 0.0942442 7.89216 0 7.66199 0C7.44096 0.0136934 7.23337 0.113949 7.08171 0.280244C6.93006 0.446539 6.8458 0.666294 6.8462 0.894524C6.71612 1.02633 6.57031 1.14055 6.41227 1.23444C6.06047 1.40036 5.76046 1.66399 5.54585 1.99578C5.33125 2.32757 5.21055 2.71441 5.19727 3.11294C5.23854 3.51037 5.3862 3.88814 5.62374 4.20407C5.86129 4.51999 6.17936 4.76163 6.54245 4.90199Z" fill="url(#paint3_linear_431_1823)"/>
<path d="M21.696 24.2407C22.1753 24.2407 22.5638 23.8402 22.5638 23.3462C22.5638 22.8522 22.1753 22.4517 21.696 22.4517C21.2167 22.4517 20.8281 22.8522 20.8281 23.3462C20.8281 23.8402 21.2167 24.2407 21.696 24.2407Z" fill="url(#paint4_linear_431_1823)"/>
<path d="M14.7541 12.6123C15.2334 12.6123 15.622 12.2118 15.622 11.7178C15.622 11.2237 15.2334 10.8232 14.7541 10.8232C14.2748 10.8232 13.8862 11.2237 13.8862 11.7178C13.8862 12.2118 14.2748 12.6123 14.7541 12.6123Z" fill="url(#paint5_linear_431_1823)"/>
<path d="M13.8864 1.87889C14.3657 1.87889 14.7543 1.4784 14.7543 0.984367C14.7543 0.490336 14.3657 0.0898438 13.8864 0.0898438C13.4071 0.0898438 13.0186 0.490336 13.0186 0.984367C13.0186 1.4784 13.4071 1.87889 13.8864 1.87889Z" fill="url(#paint6_linear_431_1823)"/>
<path d="M3.47186 9.92967C3.95117 9.92967 4.33973 9.52918 4.33973 9.03515C4.33973 8.54112 3.95117 8.14062 3.47186 8.14062C2.99256 8.14062 2.604 8.54112 2.604 9.03515C2.604 9.52918 2.99256 9.92967 3.47186 9.92967Z" fill="url(#paint7_linear_431_1823)"/>
<defs>
<linearGradient id="paint0_linear_431_1823" x1="-0.000976562" y1="2.17798" x2="24.4324" y2="2.91437" gradientUnits="userSpaceOnUse">
<stop stop-color="#FFCB52"/>
<stop offset="1" stop-color="#FF7B02"/>
</linearGradient>
<linearGradient id="paint1_linear_431_1823" x1="-0.000976562" y1="2.17798" x2="24.4324" y2="2.91437" gradientUnits="userSpaceOnUse">
<stop stop-color="#FFCB52"/>
<stop offset="1" stop-color="#FF7B02"/>
</linearGradient>
<linearGradient id="paint2_linear_431_1823" x1="-0.000976562" y1="2.17798" x2="24.4324" y2="2.91437" gradientUnits="userSpaceOnUse">
<stop stop-color="#FFCB52"/>
<stop offset="1" stop-color="#FF7B02"/>
</linearGradient>
<linearGradient id="paint3_linear_431_1823" x1="5.19727" y1="0" x2="24.5524" y2="0.534737" gradientUnits="userSpaceOnUse">
<stop stop-color="#FFCB52"/>
<stop offset="1" stop-color="#FF7B02"/>
</linearGradient>
<linearGradient id="paint4_linear_431_1823" x1="20.8281" y1="22.4517" x2="22.6148" y2="22.5041" gradientUnits="userSpaceOnUse">
<stop stop-color="#FFCB52"/>
<stop offset="1" stop-color="#FF7B02"/>
</linearGradient>
<linearGradient id="paint5_linear_431_1823" x1="13.8862" y1="10.8232" x2="15.6729" y2="10.8757" gradientUnits="userSpaceOnUse">
<stop stop-color="#FFCB52"/>
<stop offset="1" stop-color="#FF7B02"/>
</linearGradient>
<linearGradient id="paint6_linear_431_1823" x1="13.0186" y1="0.0898438" x2="14.8052" y2="0.142273" gradientUnits="userSpaceOnUse">
<stop stop-color="#FFCB52"/>
<stop offset="1" stop-color="#FF7B02"/>
</linearGradient>
<linearGradient id="paint7_linear_431_1823" x1="2.604" y1="8.14063" x2="4.39069" y2="8.19305" gradientUnits="userSpaceOnUse">
<stop stop-color="#FFCB52"/>
<stop offset="1" stop-color="#FF7B02"/>
</linearGradient>
</defs>
</svg>
