<svg width="22" height="24" viewBox="0 0 22 24" fill="none" xmlns="http://www.w3.org/2000/svg">
<path d="M1.06562 23.9783L12.2027 19.8498C12.3988 19.7849 12.563 19.6438 12.6609 19.4559C12.7588 19.2681 12.7828 19.0482 12.7278 18.8424C12.5421 18.2049 12.308 17.5836 12.0277 16.9845C13.3483 16.035 17.5963 12.9385 19.5851 11.4935C22.5682 9.28888 22.0511 6.05208 20.5794 3.75659C20.2626 3.28935 19.8558 2.89545 19.3848 2.59982C18.9137 2.30418 18.3887 2.11325 17.8429 2.03911C17.2488 1.96672 16.6466 2.03212 16.0799 2.2306C15.5131 2.42908 14.9958 2.75569 14.5654 3.18685C14.1969 3.50574 13.8968 3.90118 13.6844 4.34773C13.4721 4.79427 13.3521 5.28203 13.3324 5.77959C13.3266 6.95301 13.7635 8.08218 14.5495 8.92557C14.9875 9.27508 15.5244 9.46458 16.0769 9.46458C16.6293 9.46458 17.1663 9.27508 17.6042 8.92557C18.0087 8.64653 18.2961 8.21856 18.4083 7.72811C18.5205 7.23766 18.4492 6.72129 18.2088 6.28328C18.1111 6.09417 17.9463 5.95197 17.7494 5.8868C17.5524 5.82163 17.3387 5.83861 17.1536 5.93415C16.9685 6.02968 16.8265 6.19627 16.7576 6.39861C16.6888 6.60096 16.6986 6.82317 16.7849 7.01816C16.9122 7.28239 16.8883 7.42277 16.6735 7.58791C16.5319 7.69856 16.365 7.76894 16.1892 7.79211C16.0134 7.81528 15.8349 7.79043 15.6712 7.72002C15.216 7.2134 14.9507 6.55431 14.9234 5.86216C14.9311 5.59092 14.9948 5.32455 15.11 5.08099C15.2253 4.83742 15.3895 4.62233 15.5916 4.45019C15.8554 4.18033 16.1732 3.97389 16.5223 3.84548C16.8715 3.71707 17.2435 3.66981 17.6122 3.70705C17.9283 3.7546 18.232 3.86753 18.5053 4.03915C18.7786 4.21077 19.0159 4.43759 19.2032 4.70616C19.8635 5.73005 21.1204 8.31454 18.6066 10.1807C16.7133 11.5844 12.6164 14.5404 11.1765 15.5808C9.90576 13.6177 7.97807 12.2141 5.76707 11.6422C5.58637 11.5934 5.3949 11.6122 5.2262 11.6952C5.05749 11.7783 4.9223 11.9202 4.84428 12.0963L0.0712298 22.8306C0.00626612 22.9779 -0.0155296 23.1417 0.00855591 23.3018C0.0326414 23.4618 0.101544 23.611 0.206687 23.7307C0.31183 23.8504 0.448567 23.9353 0.599878 23.9749C0.751189 24.0146 0.91039 24.0072 1.05766 23.9536L1.06562 23.9783ZM5.99777 13.467C7.15075 13.8508 8.19927 14.5137 9.05683 15.401C9.9144 16.2882 10.5564 17.3744 10.9299 18.5699L8.37634 19.5195C8.14158 18.653 7.71511 17.8554 7.1309 17.1903C6.5467 16.5251 5.8209 16.0107 5.01134 15.6882L5.99777 13.467ZM4.34311 17.191C4.96232 17.4167 5.51808 17.798 5.96086 18.3008C6.40364 18.8036 6.71967 19.4123 6.88079 20.0727L2.31456 21.7654L4.34311 17.191Z" fill="white"/>
<path d="M9.19563 8.81863C9.05221 8.86229 8.90601 8.8954 8.7581 8.91772C8.40339 8.92903 8.05867 9.04232 7.76231 9.24496C7.46596 9.4476 7.22961 9.73164 7.07958 10.0655C7.03149 10.1908 7.01372 10.3264 7.02782 10.4605C7.04192 10.5946 7.08745 10.7231 7.16045 10.8347C7.23344 10.9464 7.33167 11.0377 7.44655 11.1008C7.56142 11.1639 7.68944 11.1968 7.8194 11.1967C7.976 11.1936 8.12824 11.1426 8.25702 11.05C8.3858 10.9575 8.48539 10.8275 8.54332 10.6765C8.69941 10.6142 8.86245 10.5726 9.02858 10.5526C9.38329 10.5413 9.72801 10.428 10.0244 10.2254C10.3207 10.0228 10.5571 9.73871 10.7071 9.40489C10.8009 9.05091 10.7985 8.6769 10.7002 8.32424C10.602 7.97158 10.4116 7.65401 10.1502 7.40666C10.0545 7.2893 9.96679 7.16514 9.88773 7.03509C10.0285 6.9916 10.172 6.95849 10.3173 6.936C10.6722 6.92563 11.0173 6.81272 11.3139 6.60997C11.6104 6.40722 11.8465 6.12266 11.9958 5.78826C12.0356 5.68645 12.0554 5.57743 12.0541 5.46758C12.0527 5.35773 12.0303 5.24926 11.9881 5.14852C11.9458 5.04779 11.8847 4.95681 11.8081 4.88092C11.7316 4.80503 11.6413 4.74576 11.5424 4.70657C11.3481 4.63341 11.134 4.64163 10.9454 4.72948C10.7568 4.81733 10.6086 4.97792 10.5321 5.17723C10.376 5.23961 10.213 5.28123 10.0468 5.30109C9.6919 5.31146 9.34679 5.42437 9.05027 5.62712C8.75376 5.82987 8.51759 6.11443 8.3683 6.44883C8.27451 6.80281 8.27689 7.17682 8.37516 7.52948C8.47344 7.88215 8.6638 8.19972 8.92516 8.44706C9.02363 8.56416 9.11401 8.68832 9.19563 8.81863ZM21.9476 16.473C21.8727 16.2741 21.7264 16.1131 21.5395 16.0238C21.3526 15.9345 21.1396 15.9239 20.9453 15.9941C20.7958 15.9137 20.6568 15.8138 20.5316 15.6968C20.2923 15.4247 19.9846 15.2273 19.6432 15.1266C19.3017 15.026 18.9399 15.0261 18.5986 15.1271C18.2784 15.284 18.0064 15.5298 17.8126 15.8373C17.6189 16.1448 17.5109 16.5021 17.5007 16.8694C17.4795 17.0229 17.4476 17.1747 17.4053 17.3235C17.2799 17.2416 17.1603 17.1505 17.0473 17.051C16.8074 16.7797 16.4997 16.5828 16.1584 16.4822C15.8172 16.3816 15.4557 16.3813 15.1142 16.4813C15.0144 16.5173 14.9225 16.5736 14.8439 16.6469C14.7653 16.7202 14.7015 16.809 14.6563 16.9082C14.6112 17.0074 14.5855 17.1149 14.5808 17.2245C14.5761 17.334 14.5925 17.4435 14.629 17.5464C14.7024 17.7468 14.8481 17.9097 15.0351 18.0006C15.2222 18.0915 15.436 18.1034 15.6313 18.0336C15.781 18.1137 15.92 18.2136 16.045 18.3309C16.4232 18.7149 16.918 18.9513 17.4451 18.9997C17.6275 18.9978 17.8081 18.9614 17.9781 18.8924C18.3011 18.7378 18.5764 18.493 18.7731 18.1853C18.9698 17.8776 19.0801 17.5192 19.0918 17.1501C19.1131 16.9965 19.145 16.8448 19.1872 16.696C19.3125 16.778 19.4321 16.8691 19.5452 16.9684C19.7845 17.2405 20.0922 17.438 20.4337 17.5386C20.7752 17.6393 21.1369 17.6391 21.4783 17.5382C21.5767 17.5005 21.6669 17.443 21.7438 17.369C21.8208 17.295 21.8828 17.2059 21.9264 17.1069C21.97 17.0079 21.9944 16.901 21.998 16.7922C22.0017 16.6834 21.9845 16.5749 21.9476 16.473ZM5.99769 4.52492C6.13007 4.59253 6.25767 4.66979 6.37953 4.75612C6.26672 4.85832 6.14709 4.95214 6.02155 5.03686C5.69964 5.19079 5.42513 5.43433 5.22852 5.74043C5.03192 6.04654 4.92092 6.40322 4.90784 6.77086C4.90784 6.98985 4.99165 7.19988 5.14084 7.35473C5.29003 7.50958 5.49237 7.59658 5.70335 7.59658C5.90595 7.58394 6.09624 7.49139 6.23525 7.33789C6.37426 7.18439 6.45149 6.98153 6.45113 6.77086C6.57025 6.64906 6.70393 6.54361 6.84888 6.45709C7.1708 6.30316 7.44531 6.05962 7.64191 5.75351C7.83852 5.44741 7.94952 5.09073 7.9626 4.72309C7.92208 4.35244 7.78201 4.00107 7.55836 3.70907C7.33471 3.41707 7.0365 3.1962 6.69774 3.07166C6.58147 2.99946 6.46986 2.91947 6.36362 2.8322C6.47158 2.73345 6.58586 2.64241 6.70569 2.55972C7.02816 2.40656 7.30316 2.16321 7.49988 1.85694C7.69659 1.55067 7.80723 1.19359 7.8194 0.825715C7.8194 0.606722 7.73559 0.396698 7.5864 0.241846C7.43722 0.0869947 7.23488 0 7.02389 0C6.82129 0.0126401 6.63101 0.105184 6.49199 0.258687C6.35298 0.41219 6.27575 0.615041 6.27612 0.825715C6.15688 0.947378 6.02322 1.05281 5.87836 1.13949C5.55589 1.29264 5.28089 1.53599 5.08418 1.84226C4.88747 2.14853 4.77682 2.50561 4.76465 2.87349C4.80248 3.24034 4.93783 3.58906 5.15557 3.88068C5.37331 4.1723 5.66487 4.39535 5.99769 4.52492Z" fill="white"/>
<path d="M19.8863 22.376C20.3257 22.376 20.6818 22.0064 20.6818 21.5503C20.6818 21.0943 20.3257 20.7246 19.8863 20.7246C19.447 20.7246 19.0908 21.0943 19.0908 21.5503C19.0908 22.0064 19.447 22.376 19.8863 22.376Z" fill="white"/>
<path d="M13.524 11.6422C13.9634 11.6422 14.3195 11.2725 14.3195 10.8164C14.3195 10.3604 13.9634 9.99072 13.524 9.99072C13.0847 9.99072 12.7285 10.3604 12.7285 10.8164C12.7285 11.2725 13.0847 11.6422 13.524 11.6422Z" fill="white"/>
<path d="M12.7291 1.73444C13.1684 1.73444 13.5246 1.36475 13.5246 0.908723C13.5246 0.452693 13.1684 0.0830078 12.7291 0.0830078C12.2898 0.0830078 11.9336 0.452693 11.9336 0.908723C11.9336 1.36475 12.2898 1.73444 12.7291 1.73444Z" fill="white"/>
<path d="M3.18223 9.16608C3.62157 9.16608 3.97774 8.79639 3.97774 8.34036C3.97774 7.88433 3.62157 7.51465 3.18223 7.51465C2.74288 7.51465 2.38672 7.88433 2.38672 8.34036C2.38672 8.79639 2.74288 9.16608 3.18223 9.16608Z" fill="white"/>
</svg>
