<svg width="20" height="20" viewBox="0 0 20 20" fill="none" xmlns="http://www.w3.org/2000/svg">
<path d="M5.357 11.4286C4.72129 11.4286 4.09986 11.2401 3.57129 10.8869C3.04271 10.5337 2.63074 10.0317 2.38747 9.44434C2.14419 8.85701 2.08054 8.21072 2.20456 7.58721C2.32858 6.9637 2.6347 6.39097 3.08422 5.94144C3.53373 5.49192 4.10645 5.18579 4.72994 5.06176C5.35343 4.93774 5.9997 5.00139 6.58702 5.24467C7.17434 5.48796 7.67633 5.89994 8.02951 6.42853C8.38269 6.95711 8.5712 7.57856 8.5712 8.21429C8.56931 9.06619 8.23007 9.88266 7.6277 10.485C7.02533 11.0874 6.20888 11.4267 5.357 11.4286ZM5.357 6.42857C5.00383 6.42857 4.65859 6.5333 4.36494 6.72952C4.07129 6.92574 3.84241 7.20463 3.70726 7.53092C3.57211 7.85722 3.53674 8.21627 3.60564 8.56266C3.67454 8.90906 3.84461 9.22724 4.09434 9.47698C4.34407 9.72671 4.66225 9.89679 5.00863 9.96569C5.35502 10.0346 5.71406 9.99923 6.04034 9.86407C6.36663 9.72892 6.64552 9.50004 6.84173 9.20638C7.03794 8.91272 7.14267 8.56747 7.14267 8.21429C7.14267 7.97978 7.09648 7.74758 7.00674 7.53092C6.917 7.31427 6.78547 7.11742 6.61966 6.9516C6.45384 6.78578 6.25699 6.65424 6.04034 6.5645C5.8237 6.47476 5.5915 6.42857 5.357 6.42857ZM12.4997 7.85714C11.7227 7.85714 10.9632 7.62674 10.3171 7.19506C9.67109 6.76338 9.16757 6.14982 8.87024 5.43197C8.5729 4.71412 8.4951 3.92421 8.64668 3.16215C8.79826 2.40008 9.17241 1.70007 9.72182 1.15065C10.2712 0.601233 10.9712 0.227073 11.7333 0.0754882C12.4953 -0.0760966 13.2852 0.0017022 14.003 0.299046C14.7209 0.596391 15.3344 1.09993 15.7661 1.74598C16.1977 2.39203 16.4281 3.15157 16.4281 3.92857C16.4262 4.96991 16.0117 5.96807 15.2754 6.70441C14.5391 7.44075 13.541 7.85526 12.4997 7.85714ZM12.4997 1.42857C12.0052 1.42857 11.5219 1.5752 11.1108 1.8499C10.6997 2.1246 10.3792 2.51505 10.19 2.97186C10.0008 3.42868 9.95131 3.93135 10.0478 4.4163C10.1442 4.90125 10.3823 5.34671 10.7319 5.69634C11.0816 6.04597 11.527 6.28407 12.012 6.38054C12.4969 6.477 12.9995 6.42749 13.4563 6.23827C13.9132 6.04905 14.3036 5.72862 14.5783 5.3175C14.853 4.90638 14.9996 4.42303 14.9996 3.92857C14.9996 3.26553 14.7362 2.62965 14.2674 2.16081C13.7986 1.69197 13.1627 1.42857 12.4997 1.42857ZM6.78553 20H3.92847C2.88657 20 1.88735 19.5861 1.15062 18.8493C0.413891 18.1126 0 17.1133 0 16.0714C0 15.0295 0.413891 14.0303 1.15062 13.2935C1.88735 12.5568 2.88657 12.1429 3.92847 12.1429H6.78553C7.82743 12.1429 8.82665 12.5568 9.56338 13.2935C10.3001 14.0303 10.714 15.0295 10.714 16.0714C10.714 17.1133 10.3001 18.1126 9.56338 18.8493C8.82665 19.5861 7.82743 20 6.78553 20ZM3.92847 13.5714C3.26544 13.5714 2.62958 13.8348 2.16075 14.3037C1.69192 14.7725 1.42853 15.4084 1.42853 16.0714C1.42853 16.7345 1.69192 17.3704 2.16075 17.8392C2.62958 18.308 3.26544 18.5714 3.92847 18.5714H6.78553C7.44856 18.5714 8.08442 18.308 8.55325 17.8392C9.02208 17.3704 9.28547 16.7345 9.28547 16.0714C9.28547 15.4084 9.02208 14.7725 8.55325 14.3037C8.08442 13.8348 7.44856 13.5714 6.78553 13.5714H3.92847Z" fill="url(#paint0_linear_1384_1480)"/>
<path d="M14.6428 19.9994H7.14298C6.95354 19.9994 6.77187 19.9242 6.63791 19.7902C6.50396 19.6563 6.42871 19.4746 6.42871 19.2852C6.42871 19.0957 6.50396 18.914 6.63791 18.7801C6.77187 18.6461 6.95354 18.5709 7.14298 18.5709H14.6428C15.6847 18.5709 16.6839 18.157 17.4206 17.4202C18.1574 16.6835 18.5712 15.6842 18.5712 14.6423C18.5712 13.6004 18.1574 12.6011 17.4206 11.8644C16.6839 11.1276 15.6847 10.7137 14.6428 10.7137H10.3572C10.1677 10.7137 9.98607 10.6385 9.85211 10.5045C9.71816 10.3706 9.64291 10.1889 9.64291 9.99944C9.64291 9.81 9.71816 9.62832 9.85211 9.49437C9.98607 9.36041 10.1677 9.28516 10.3572 9.28516H14.6428C16.0635 9.28516 17.4261 9.84957 18.4307 10.8542C19.4354 11.8589 19.9998 13.2215 19.9998 14.6423C19.9998 16.0631 19.4354 17.4257 18.4307 18.4304C17.4261 19.435 16.0635 19.9994 14.6428 19.9994Z" fill="url(#paint1_linear_1384_1480)"/>
<defs>
<linearGradient id="paint0_linear_1384_1480" x1="0" y1="0" x2="16.9146" y2="0.420227" gradientUnits="userSpaceOnUse">
<stop stop-color="#FFCB52"/>
<stop offset="1" stop-color="#FF7B02"/>
</linearGradient>
<linearGradient id="paint1_linear_1384_1480" x1="6.42871" y1="9.28516" x2="20.3898" y2="9.82001" gradientUnits="userSpaceOnUse">
<stop stop-color="#FFCB52"/>
<stop offset="1" stop-color="#FF7B02"/>
</linearGradient>
</defs>
</svg>
