<svg width="24" height="24" viewBox="0 0 24 24" fill="none" xmlns="http://www.w3.org/2000/svg">
<path d="M23.1599 9.69603C22.8228 9.29121 22.4008 8.96533 21.9239 8.7414C21.447 8.51747 20.9268 8.40094 20.4 8.40004H14.928L15.6 6.68404C15.8795 5.9327 15.9726 5.12477 15.8712 4.32955C15.7699 3.53433 15.4772 2.77556 15.0182 2.11832C14.5592 1.46109 13.9476 0.925007 13.2359 0.556064C12.5242 0.187121 11.7336 -0.00367131 10.932 5.35094e-05C10.7011 0.000535142 10.4753 0.0675837 10.2817 0.19316C10.088 0.318737 9.93462 0.497512 9.83998 0.708052L6.41999 8.40004H3.59999C2.64521 8.40004 1.72954 8.77932 1.05441 9.45445C0.379284 10.1296 0 11.0453 0 12V20.4C0 21.3548 0.379284 22.2705 1.05441 22.9456C1.72954 23.6207 2.64521 24 3.59999 24H18.876C19.7181 23.9997 20.5335 23.7042 21.1803 23.1648C21.8271 22.6255 22.2644 21.8764 22.416 21.048L23.9399 12.648C24.0342 12.1289 24.0132 11.5954 23.8784 11.0852C23.7436 10.5751 23.4983 10.1009 23.1599 9.69603ZM5.99999 21.6H3.59999C3.28173 21.6 2.97651 21.4736 2.75147 21.2485C2.52642 21.0235 2.39999 20.7183 2.39999 20.4V12C2.39999 11.6818 2.52642 11.3765 2.75147 11.1515C2.97651 10.9265 3.28173 10.8 3.59999 10.8H5.99999V21.6ZM21.6 12.216L20.076 20.616C20.0248 20.8956 19.8762 21.1479 19.6564 21.3281C19.4367 21.5083 19.1601 21.6046 18.876 21.6H8.39998V9.85203L11.664 2.50805C12 2.606 12.312 2.77254 12.5804 2.99715C12.8487 3.22176 13.0676 3.49957 13.2232 3.81304C13.3789 4.12651 13.4678 4.46883 13.4844 4.8184C13.5011 5.16797 13.4451 5.5172 13.32 5.84404L12.684 7.56004C12.5485 7.92274 12.5027 8.31285 12.5506 8.69707C12.5985 9.08129 12.7387 9.44821 12.9592 9.76652C13.1796 10.0848 13.4738 10.3451 13.8167 10.525C14.1595 10.705 14.5408 10.7994 14.928 10.8H20.4C20.5762 10.7997 20.7504 10.8383 20.9101 10.913C21.0698 10.9876 21.2111 11.0966 21.324 11.232C21.4396 11.3656 21.5242 11.5231 21.5719 11.6932C21.6196 11.8633 21.6292 12.0418 21.6 12.216Z" fill="white"/>
</svg>
