<svg width="16" height="20" viewBox="0 0 16 20" fill="none" xmlns="http://www.w3.org/2000/svg">
<path d="M8 20C8.16405 19.9991 8.32295 19.9437 8.45091 19.8429C8.72727 19.6 16 13.8429 16 7.85714C16 5.7733 15.1571 3.7748 13.6569 2.3013C12.1566 0.827804 10.1217 0 8 0C5.87827 0 3.84344 0.827804 2.34315 2.3013C0.842855 3.7748 0 5.7733 0 7.85714C0 13.8429 7.27273 19.6 7.54909 19.8429C7.67705 19.9437 7.83595 19.9991 8 20ZM1.45455 7.85714C1.45455 6.15218 2.14415 4.51705 3.37166 3.31146C4.59918 2.10587 6.26404 1.42857 8 1.42857C9.73596 1.42857 11.4008 2.10587 12.6283 3.31146C13.8558 4.51705 14.5455 6.15218 14.5455 7.85714C14.5455 12.3571 9.54909 17.0071 8 18.35C6.45091 17.0071 1.45455 12.3571 1.45455 7.85714Z" fill="url(#paint0_linear_1384_1459)"/>
<path d="M11.6358 7.85659C11.6358 7.15022 11.4225 6.45973 11.0229 5.87241C10.6234 5.28509 10.0554 4.82733 9.39098 4.55702C8.72652 4.2867 7.99537 4.21598 7.28998 4.35378C6.5846 4.49159 5.93666 4.83173 5.42811 5.33121C4.91955 5.83068 4.57322 6.46705 4.43291 7.15984C4.2926 7.85262 4.36461 8.57072 4.63984 9.22331C4.91507 9.87591 5.38115 10.4337 5.97915 10.8261C6.57714 11.2186 7.2802 11.428 7.9994 11.428C8.96383 11.428 9.88875 11.0517 10.5707 10.382C11.2526 9.71219 11.6358 8.80379 11.6358 7.85659ZM5.81758 7.85659C5.81758 7.43277 5.94555 7.01847 6.18529 6.66608C6.42503 6.31369 6.76578 6.03903 7.16446 5.87684C7.56313 5.71466 8.00182 5.67222 8.42505 5.7549C8.84829 5.83759 9.23705 6.04167 9.54218 6.34136C9.84731 6.64104 10.0551 7.02286 10.1393 7.43854C10.2235 7.85421 10.1803 8.28507 10.0151 8.67662C9.85 9.06818 9.57035 9.40285 9.21155 9.63831C8.85276 9.87377 8.43092 9.99944 7.9994 9.99944C7.42075 9.99944 6.86579 9.77368 6.45662 9.37182C6.04745 8.96995 5.81758 8.42491 5.81758 7.85659Z" fill="url(#paint1_linear_1384_1459)"/>
<defs>
<linearGradient id="paint0_linear_1384_1459" x1="0" y1="0" x2="16.4743" y2="0.398622" gradientUnits="userSpaceOnUse">
<stop stop-color="#FFCB52"/>
<stop offset="1" stop-color="#FF7B02"/>
</linearGradient>
<linearGradient id="paint1_linear_1384_1459" x1="4.36304" y1="4.28516" x2="11.8486" y2="4.51568" gradientUnits="userSpaceOnUse">
<stop stop-color="#FFCB52"/>
<stop offset="1" stop-color="#FF7B02"/>
</linearGradient>
</defs>
</svg>
