<svg width="20" height="24" viewBox="0 0 20 24" fill="none" xmlns="http://www.w3.org/2000/svg">
<mask id="mask0_797_731" style="mask-type:alpha" maskUnits="userSpaceOnUse" x="0" y="0" width="20" height="24">
<path fill-rule="evenodd" clip-rule="evenodd" d="M13.9175 20.1833C17.0462 16.75 20 13.5064 20 9.60025C19.997 7.05498 18.9425 4.61478 17.0678 2.81501C15.1931 1.01523 12.6513 0.0028586 10 0C7.34875 0.0028586 4.80694 1.01523 2.93222 2.81501C1.0575 4.61478 0.00297764 7.05498 0 9.60025C0 13.5064 2.95375 16.75 6.0825 20.1833L6.10915 20.2126C7.09088 21.2907 8.10569 22.4052 9.01 23.5326C9.12677 23.678 9.27675 23.7958 9.44838 23.8768C9.62002 23.9579 9.80873 24 10 24C10.1913 24 10.38 23.9579 10.5516 23.8768C10.7233 23.7958 10.8732 23.678 10.99 23.5326C11.8943 22.4052 12.9091 21.2907 13.8908 20.2126L13.9175 20.1833ZM10 21.5874C10.7854 20.6524 11.6156 19.7407 12.3929 18.8871L12.4387 18.8368C14.0291 17.0916 15.4328 15.5435 16.4579 13.975C17.4667 12.4312 17.9998 11.0254 18 9.60105C17.9973 7.61286 17.1741 5.68953 15.6827 4.25776C14.1887 2.82346 12.1465 2.00286 10 2C7.85352 2.00286 5.81132 2.82346 4.3173 4.25776C2.82583 5.68961 2.00264 7.61311 2 9.60144C2.0003 11.0257 2.53335 12.4314 3.54215 13.975C4.56724 15.5435 5.97037 17.091 7.56076 18.8362L7.60707 18.8871C8.38442 19.7407 9.21459 20.6524 10 21.5874ZM10 15.2003C8.88049 15.2003 7.77985 14.882 6.83675 14.277C5.89285 13.6716 5.14447 12.8025 4.69909 11.7703C4.25325 10.7369 4.13517 9.59488 4.36365 8.49214C4.592 7.39005 5.15338 6.38936 5.96327 5.61184C6.77228 4.83517 7.79334 4.31487 8.89327 4.10483C9.99291 3.89484 11.1335 4.00196 12.1741 4.41575C13.2152 4.82976 14.1181 5.53605 14.7596 6.45763C15.4017 7.38028 15.75 8.47405 15.75 9.60025C15.75 11.1124 15.1235 12.5453 14.0367 13.5887C12.9527 14.6293 11.4993 15.2003 10 15.2003ZM7.91661 12.5936C8.5333 12.9892 9.25832 13.2003 10 13.2003C10.9946 13.2003 11.9484 12.8211 12.6517 12.1459C13.3549 11.4708 13.75 10.5551 13.75 9.60025C13.75 8.88822 13.5301 8.19218 13.118 7.60014C12.706 7.00811 12.1203 6.54668 11.4351 6.2742C10.7498 6.00172 9.99584 5.93042 9.26841 6.06933C8.54098 6.20824 7.8728 6.55112 7.34835 7.0546C6.8239 7.55808 6.46675 8.19956 6.32205 8.89791C6.17736 9.59626 6.25162 10.3201 6.53545 10.9779C6.81928 11.6358 7.29993 12.198 7.91661 12.5936Z" fill="white"/>
</mask>
<g mask="url(#mask0_797_731)">
<rect width="20" height="24" fill="white"/>
</g>
</svg>
