<svg width="26" height="30" viewBox="0 0 26 30" fill="none" xmlns="http://www.w3.org/2000/svg">
<path d="M13 0C9.55337 0.00357326 6.24902 1.26904 3.81189 3.51876C1.37475 5.76848 0.00387093 8.81873 0 12.0003C0 16.8829 3.83988 20.9375 7.90725 25.2292C9.19425 26.5882 10.5268 27.9937 11.713 29.4158C11.8648 29.5976 12.0598 29.7448 12.2829 29.846C12.506 29.9473 12.7514 30 13 30C13.2486 30 13.494 29.9473 13.7171 29.846C13.9402 29.7448 14.1352 29.5976 14.287 29.4158C15.4732 27.9937 16.8057 26.5882 18.0928 25.2292C22.1601 20.9375 26 16.8829 26 12.0003C25.9961 8.81873 24.6252 5.76848 22.1881 3.51876C19.751 1.26904 16.4466 0.00357326 13 0ZM13 16.5004C12.0358 16.5004 11.0933 16.2365 10.2916 15.742C9.48991 15.2475 8.86506 14.5447 8.49609 13.7224C8.12711 12.9001 8.03057 11.9953 8.21867 11.1224C8.40677 10.2494 8.87107 9.4476 9.55285 8.81825C10.2346 8.1889 11.1033 7.7603 12.0489 7.58666C12.9946 7.41303 13.9748 7.50214 14.8656 7.84275C15.7564 8.18335 16.5177 8.76014 17.0534 9.50018C17.5891 10.2402 17.875 11.1103 17.875 12.0003C17.875 13.1938 17.3614 14.3384 16.4471 15.1824C15.5329 16.0263 14.2929 16.5004 13 16.5004Z" fill="url(#paint0_linear_431_1734)"/>
<defs>
<linearGradient id="paint0_linear_431_1734" x1="0" y1="0" x2="26.768" y2="0.701669" gradientUnits="userSpaceOnUse">
<stop stop-color="#FFCB52"/>
<stop offset="1" stop-color="#FF7B02"/>
</linearGradient>
</defs>
</svg>
