<svg width="24" height="26" viewBox="0 0 24 26" fill="none" xmlns="http://www.w3.org/2000/svg">
<path d="M12.0081 12.9309C15.8403 12.9309 18.9469 10.2601 18.9469 6.96544C18.9469 3.67082 15.8403 1 12.0081 1C8.17593 1 5.06934 3.67082 5.06934 6.96544C5.06934 10.2601 8.17593 12.9309 12.0081 12.9309Z" stroke="white" stroke-width="2" stroke-linecap="round" stroke-linejoin="round"/>
<path fill-rule="evenodd" clip-rule="evenodd" d="M1.00002 21.2275C0.998182 20.8081 1.10728 20.3939 1.31907 20.0161C1.98371 18.8733 3.85799 18.2676 5.41325 17.9933C6.53489 17.7875 7.67203 17.65 8.81619 17.5819C10.9345 17.4219 13.0651 17.4219 15.1834 17.5819C16.3275 17.6508 17.4646 17.7883 18.5864 17.9933C20.1416 18.2676 22.0159 18.8161 22.6806 20.0161C23.1065 20.7862 23.1065 21.6802 22.6806 22.4503C22.0159 23.6502 20.1416 24.1988 18.5864 24.4616C17.466 24.6759 16.3285 24.8173 15.1834 24.8845C13.4593 25.0101 11.7271 25.033 9.99925 24.953C9.60047 24.953 9.21498 24.953 8.81619 24.8845C7.67541 24.8181 6.54221 24.6767 5.42654 24.4616C3.85799 24.1988 1.997 23.6502 1.31907 22.4503C1.10836 22.0681 0.999372 21.6504 1.00002 21.2275Z" stroke="white" stroke-width="2" stroke-linecap="round" stroke-linejoin="round"/>
</svg>
