<svg width="28" height="28" viewBox="0 0 28 28" fill="none" xmlns="http://www.w3.org/2000/svg">
<path d="M24.2051 15.1237C24.0093 14.9047 23.9013 14.6232 23.9013 14.3318C23.9013 14.0403 24.0093 13.7589 24.2051 13.5399L25.7685 11.8121C25.9408 11.6234 26.0478 11.3858 26.0741 11.1336C26.1005 10.8814 26.0448 10.6275 25.9151 10.4083L23.4722 6.25689C23.3439 6.03794 23.1484 5.86439 22.9137 5.76098C22.679 5.65756 22.4171 5.62956 22.1653 5.68096L19.869 6.1369C19.5768 6.19621 19.2726 6.14841 19.0138 6.00252C18.755 5.85663 18.5596 5.62275 18.4643 5.34501L17.7192 3.14931C17.6373 2.911 17.4812 2.70401 17.2729 2.5576C17.0647 2.41119 16.8149 2.33277 16.5589 2.33342H11.6731C11.4067 2.31976 11.1431 2.39212 10.9226 2.53945C10.702 2.68677 10.5366 2.90096 10.4516 3.14931L9.76762 5.34501C9.67235 5.62275 9.47688 5.85663 9.21811 6.00252C8.95933 6.14841 8.65515 6.19621 8.36296 6.1369L6.00557 5.68096C5.76684 5.64783 5.52346 5.68483 5.3061 5.78732C5.08874 5.8898 4.90712 6.05319 4.78412 6.25689L2.34123 10.4083C2.20829 10.6251 2.14852 10.8776 2.17045 11.1297C2.19239 11.3818 2.29492 11.6207 2.46338 11.8121L4.01461 13.5399C4.21043 13.7589 4.31843 14.0403 4.31843 14.3318C4.31843 14.6232 4.21043 14.9047 4.01461 15.1237L2.46338 16.8514C2.29492 17.0429 2.19239 17.2818 2.17045 17.5339C2.14852 17.786 2.20829 18.0385 2.34123 18.2553L4.78412 22.4067C4.91249 22.6256 5.10795 22.7992 5.34263 22.9026C5.57731 23.006 5.83924 23.034 6.09107 22.9826L8.38738 22.5267C8.67958 22.4674 8.98376 22.5152 9.24253 22.6611C9.50131 22.8069 9.69678 23.0408 9.79205 23.3186L10.5371 25.5143C10.6221 25.7626 10.7875 25.9768 11.0081 26.1241C11.2286 26.2715 11.4922 26.3438 11.7586 26.3302H16.6444C16.9004 26.3308 17.1502 26.2524 17.3584 26.106C17.5667 25.9596 17.7228 25.7526 17.8047 25.5143L18.5498 23.3186C18.6451 23.0408 18.8405 22.8069 19.0993 22.6611C19.3581 22.5152 19.6623 22.4674 19.9545 22.5267L22.2508 22.9826C22.5026 23.034 22.7645 23.006 22.9992 22.9026C23.2339 22.7992 23.4294 22.6256 23.5577 22.4067L26.0006 18.2553C26.1303 18.0361 26.186 17.7821 26.1596 17.5299C26.1333 17.2777 26.0263 17.0402 25.854 16.8514L24.2051 15.1237ZM22.3851 16.7315L23.3623 17.8113L21.7989 20.475L20.3575 20.187C19.4778 20.0103 18.5627 20.1571 17.7859 20.5995C17.0091 21.0419 16.4247 21.749 16.1436 22.5867L15.6794 23.9305H12.5525L12.1128 22.5627C11.8317 21.725 11.2473 21.0179 10.4704 20.5755C9.69363 20.1331 8.77852 19.9864 7.89881 20.163L6.4575 20.451L4.86962 17.7993L5.84678 16.7195C6.44768 16.0595 6.77988 15.2052 6.77988 14.3198C6.77988 13.4344 6.44768 12.5801 5.84678 11.9201L4.86962 10.8403L6.43307 8.20062L7.87438 8.48858C8.75409 8.66522 9.6692 8.51843 10.446 8.07608C11.2228 7.63372 11.8073 6.92658 12.0884 6.08891L12.5525 4.73309H15.6794L16.1436 6.10091C16.4247 6.93858 17.0091 7.64572 17.7859 8.08807C18.5627 8.53043 19.4778 8.67722 20.3575 8.50058L21.7989 8.21262L23.3623 10.8763L22.3851 11.9561C21.791 12.6145 21.4629 13.4639 21.4629 14.3438C21.4629 15.2236 21.791 16.073 22.3851 16.7315ZM14.116 9.53244C13.1496 9.53244 12.205 9.81392 11.4016 10.3413C10.5981 10.8686 9.97188 11.6182 9.60209 12.4952C9.2323 13.3721 9.13554 14.3371 9.32406 15.2681C9.51258 16.1991 9.97791 17.0542 10.6612 17.7254C11.3445 18.3966 12.215 18.8537 13.1628 19.0389C14.1105 19.2241 15.0929 19.1291 15.9857 18.7658C16.8784 18.4026 17.6415 17.7874 18.1783 16.9982C18.7152 16.2089 19.0017 15.281 19.0017 14.3318C19.0017 13.0589 18.487 11.8382 17.5707 10.9381C16.6545 10.0381 15.4118 9.53244 14.116 9.53244ZM14.116 16.7315C13.6328 16.7315 13.1605 16.5907 12.7588 16.327C12.357 16.0634 12.0439 15.6886 11.859 15.2501C11.6741 14.8116 11.6258 14.3291 11.72 13.8636C11.8143 13.3981 12.0469 12.9706 12.3886 12.635C12.7302 12.2994 13.1655 12.0708 13.6394 11.9782C14.1133 11.8856 14.6044 11.9332 15.0508 12.1148C15.4972 12.2964 15.8787 12.604 16.1472 12.9986C16.4156 13.3932 16.5589 13.8572 16.5589 14.3318C16.5589 14.9682 16.3015 15.5786 15.8433 16.0286C15.3852 16.4786 14.7639 16.7315 14.116 16.7315Z" fill="white"/>
</svg>
