<svg width="24" height="24" viewBox="0 0 24 24" fill="none" xmlns="http://www.w3.org/2000/svg">
<g clip-path="url(#clip0_1384_1521)">
<path d="M16.3143 4.83815L20.6321 8.41717L17.3218 11.7672V10.7599L15.4651 10.4318C15.1865 10.3867 14.9049 10.3663 14.6231 10.3707C13.3206 10.3707 10.917 10.6989 7.4267 12.4693C8.31186 10.2181 10.2189 7.89062 14.2921 7.44038L16.2927 7.23434V4.83815M14.0978 0V5.09761C3.91486 6.15071 4.47618 17.0022 4.47618 17.0022C9.95983 13.1256 13.4069 12.7211 14.6087 12.7211C14.7692 12.708 14.9304 12.708 15.0909 12.7211V17.2235L24 8.21876L14.0978 0Z" fill="white"/>
<path d="M19.0993 17.2539V21.1763C19.0974 21.3025 19.0488 21.4229 18.9639 21.5114C18.8791 21.5999 18.7649 21.6495 18.6459 21.6495H2.66267C2.54434 21.6495 2.43085 21.5996 2.34717 21.5109C2.2635 21.4222 2.21649 21.3018 2.21649 21.1763V4.17412C2.21649 4.04863 2.2635 3.92829 2.34717 3.83956C2.43085 3.75083 2.54434 3.70098 2.66267 3.70098H6.74303V1.35059H2.66267C1.95649 1.35059 1.27922 1.64806 0.779878 2.17758C0.28053 2.70709 0 3.42527 0 4.17412L0 21.1763C0 21.9252 0.28053 22.6434 0.779878 23.1729C1.27922 23.7024 1.95649 23.9999 2.66267 23.9999H18.6459C19.3527 23.9999 20.0307 23.7026 20.5312 23.1733C21.0317 22.644 21.3138 21.9259 21.3157 21.1763V17.2539H19.0993Z" fill="white"/>
</g>
<defs>
<clipPath id="clip0_1384_1521">
<rect width="24" height="24" fill="white"/>
</clipPath>
</defs>
</svg>
