<svg width="20" height="20" viewBox="0 0 20 20" fill="none" xmlns="http://www.w3.org/2000/svg">
<path d="M10 20C4.4856 20 0 15.5144 0 10C0 4.4856 4.4856 0 10 0C15.5144 0 20 4.4856 20 10C20 15.5144 15.5136 20 10 20ZM10 1.6C5.368 1.6 1.6 5.368 1.6 10C1.6 14.632 5.368 18.4 10 18.4C14.632 18.4 18.4 14.632 18.4 10C18.4 5.368 14.6312 1.6 10 1.6ZM9.936 10.736H4.8C4.58783 10.736 4.38434 10.6517 4.23431 10.5017C4.08429 10.3517 4 10.1482 4 9.936C4 9.72383 4.08429 9.52034 4.23431 9.37031C4.38434 9.22029 4.58783 9.136 4.8 9.136H9.136V3.2C9.136 2.98783 9.22029 2.78434 9.37031 2.63431C9.52034 2.48429 9.72383 2.4 9.936 2.4C10.1482 2.4 10.3517 2.48429 10.5017 2.63431C10.6517 2.78434 10.736 2.98783 10.736 3.2V9.936C10.736 10.1482 10.6517 10.3517 10.5017 10.5017C10.3517 10.6517 10.1482 10.736 9.936 10.736Z" fill="url(#paint0_linear_1384_1465)"/>
<defs>
<linearGradient id="paint0_linear_1384_1465" x1="0" y1="0" x2="20.5861" y2="0.622641" gradientUnits="userSpaceOnUse">
<stop stop-color="#FFCB52"/>
<stop offset="1" stop-color="#FF7B02"/>
</linearGradient>
</defs>
</svg>
