<svg width="197" height="218" viewBox="0 0 197 218" fill="none" xmlns="http://www.w3.org/2000/svg">
<path d="M59.1172 207.5H61.8772L67.2772 187.52H65.5671L60.5571 206.15L56.0871 187.52H53.2671L48.7971 206.15L43.7871 187.52H42.0771L47.4771 207.5H50.2371L54.6771 188.78L59.1172 207.5ZM75.6366 187.52H73.8666V207.5H75.6366V187.52ZM85.5073 193.07C85.5073 190.01 86.6773 188.81 90.3973 188.81C92.1073 188.81 93.9973 189.02 95.6773 189.29L95.8573 187.76C94.3573 187.43 92.0773 187.22 90.3673 187.22C85.5073 187.22 83.7373 189.29 83.7373 193.04V201.98C83.7373 205.7 85.2673 207.8 90.1273 207.8C92.0773 207.8 94.3573 207.5 96.2173 206.96V198.68H94.4473V205.76C93.2173 206.06 91.4773 206.21 90.2473 206.21C86.4973 206.21 85.5073 204.89 85.5073 201.95V193.07ZM105.646 193.07C105.646 190.01 106.816 188.81 110.536 188.81C112.246 188.81 114.136 189.02 115.816 189.29L115.996 187.76C114.496 187.43 112.216 187.22 110.506 187.22C105.646 187.22 103.876 189.29 103.876 193.04V201.98C103.876 205.7 105.406 207.8 110.266 207.8C112.216 207.8 114.496 207.5 116.356 206.96V198.68H114.586V205.76C113.356 206.06 111.616 206.21 110.386 206.21C106.636 206.21 105.646 204.89 105.646 201.95V193.07ZM126.235 187.52H124.465V207.5H135.235V205.91H126.235V187.52ZM142.289 207.5H153.569V205.91H144.059V198.11H152.879V196.52H144.059V189.11H153.539V187.52H142.289V207.5Z" fill="white"/>
<path d="M115.266 37.3H81.6664L57.4664 140.5L32.0664 37.3H7.06641L40.0664 170.5H74.0664L98.4664 63.3L122.866 170.5H156.866L189.866 37.3H164.866L139.466 140.5L115.266 37.3Z" fill="black"/>
<path d="M115.266 37.3L116.24 37.0717L116.059 36.3H115.266V37.3ZM81.6664 37.3V36.3H80.8738L80.6928 37.0717L81.6664 37.3ZM57.4664 140.5L56.4954 140.739L58.44 140.728L57.4664 140.5ZM32.0664 37.3L33.0374 37.061L32.8501 36.3H32.0664V37.3ZM7.06641 37.3V36.3H5.78843L6.09575 37.5405L7.06641 37.3ZM40.0664 170.5L39.0958 170.74L39.2839 171.5H40.0664V170.5ZM74.0664 170.5V171.5H74.8644L75.0415 170.722L74.0664 170.5ZM98.4664 63.3L99.4415 63.0781H97.4914L98.4664 63.3ZM122.866 170.5L121.891 170.722L122.068 171.5H122.866V170.5ZM156.866 170.5V171.5H157.649L157.837 170.74L156.866 170.5ZM189.866 37.3L190.837 37.5405L191.144 36.3H189.866V37.3ZM164.866 37.3V36.3H164.083L163.895 37.061L164.866 37.3ZM139.466 140.5L138.493 140.728L140.437 140.739L139.466 140.5ZM115.266 36.3H81.6664V38.3H115.266V36.3ZM80.6928 37.0717L56.4928 140.272L58.44 140.728L82.64 37.5283L80.6928 37.0717ZM58.4374 140.261L33.0374 37.061L31.0954 37.539L56.4954 140.739L58.4374 140.261ZM32.0664 36.3H7.06641V38.3H32.0664V36.3ZM6.09575 37.5405L39.0958 170.74L41.0371 170.26L8.03706 37.0595L6.09575 37.5405ZM40.0664 171.5H74.0664V169.5H40.0664V171.5ZM75.0415 170.722L99.4415 63.5219L97.4914 63.0781L73.0913 170.278L75.0415 170.722ZM97.4914 63.5219L121.891 170.722L123.841 170.278L99.4415 63.0781L97.4914 63.5219ZM122.866 171.5H156.866V169.5H122.866V171.5ZM157.837 170.74L190.837 37.5405L188.896 37.0595L155.896 170.26L157.837 170.74ZM189.866 36.3H164.866V38.3H189.866V36.3ZM163.895 37.061L138.495 140.261L140.437 140.739L165.837 37.539L163.895 37.061ZM140.44 140.272L116.24 37.0717L114.293 37.5283L138.493 140.728L140.44 140.272Z" fill="url(#paint0_linear_2034_1441)"/>
<defs>
<linearGradient id="paint0_linear_2034_1441" x1="0" y1="0.5" x2="202.771" y2="6.66425" gradientUnits="userSpaceOnUse">
<stop stop-color="#FFCB52"/>
<stop offset="1" stop-color="#FF7B02"/>
</linearGradient>
</defs>
</svg>
