<svg width="183" height="134" viewBox="0 0 183 134" fill="none" xmlns="http://www.w3.org/2000/svg">
<path d="M108.266 0.799998H74.6664L50.4664 104L25.0664 0.799998H0.0664064L33.0664 134H67.0664L91.4664 26.8L115.866 134H149.866L182.866 0.799998H157.866L132.466 104L108.266 0.799998Z" fill="black"/>
<path d="M108.266 0.799999L109.24 0.571693L109.059 -0.200001H108.266V0.799999ZM74.6664 0.799999V-0.200001H73.8738L73.6928 0.571693L74.6664 0.799999ZM50.4664 104L49.4954 104.239L51.44 104.228L50.4664 104ZM25.0664 0.799999L26.0374 0.561005L25.8501 -0.200001H25.0664V0.799999ZM0.0664062 0.799999V-0.200001H-1.21157L-0.904248 1.04047L0.0664062 0.799999ZM33.0664 134L32.0958 134.24L32.2839 135H33.0664V134ZM67.0664 134V135H67.8644L68.0415 134.222L67.0664 134ZM91.4664 26.8L92.4415 26.5781H90.4913L91.4664 26.8ZM115.866 134L114.891 134.222L115.068 135H115.866V134ZM149.866 134V135H150.649L150.837 134.24L149.866 134ZM182.866 0.799999L183.837 1.04047L184.144 -0.200001H182.866V0.799999ZM157.866 0.799999V-0.200001H157.083L156.895 0.561008L157.866 0.799999ZM132.466 104L131.493 104.228L133.437 104.239L132.466 104ZM108.266 -0.200001H74.6664V1.8H108.266V-0.200001ZM73.6928 0.571693L49.4928 103.772L51.44 104.228L75.64 1.0283L73.6928 0.571693ZM51.4374 103.761L26.0374 0.561005L24.0954 1.03899L49.4954 104.239L51.4374 103.761ZM25.0664 -0.200001H0.0664062V1.8H25.0664V-0.200001ZM-0.904248 1.04047L32.0958 134.24L34.0371 133.76L1.03706 0.559521L-0.904248 1.04047ZM33.0664 135H67.0664V133H33.0664V135ZM68.0415 134.222L92.4415 27.0219L90.4913 26.5781L66.0913 133.778L68.0415 134.222ZM90.4913 27.0219L114.891 134.222L116.841 133.778L92.4415 26.5781L90.4913 27.0219ZM115.866 135H149.866V133H115.866V135ZM150.837 134.24L183.837 1.04047L181.896 0.559521L148.896 133.76L150.837 134.24ZM182.866 -0.200001H157.866V1.8H182.866V-0.200001ZM156.895 0.561008L131.495 103.761L133.437 104.239L158.837 1.03899L156.895 0.561008ZM133.44 103.772L109.24 0.571693L107.293 1.0283L131.493 104.228L133.44 103.772Z" fill="url(#paint0_linear_729_670)"/>
<defs>
<linearGradient id="paint0_linear_729_670" x1="-7" y1="-36" x2="195.771" y2="-29.8357" gradientUnits="userSpaceOnUse">
<stop stop-color="#FFCB52"/>
<stop offset="1" stop-color="#FF7B02"/>
</linearGradient>
</defs>
</svg>
